<mxfile host="app.diagrams.net" modified="2022-01-25T17:57:35.238Z" agent="5.0 (Windows NT 10.0; Win64; x64) AppleWebKit/537.36 (KHTML, like Gecko) Chrome/97.0.4692.99 Safari/537.36" etag="NiZZgi_EEgqfIG7CorSh" version="16.4.6" type="github">
  <diagram id="1RQBEhvvw9E_qo1DuB-Y" name="Page-1">
    <mxGraphModel dx="1182" dy="732" grid="1" gridSize="10" guides="1" tooltips="1" connect="1" arrows="1" fold="1" page="1" pageScale="1" pageWidth="850" pageHeight="1100" background="#F4F1DE" math="0" shadow="0">
      <root>
        <mxCell id="0" />
        <mxCell id="1" parent="0" />
        <mxCell id="aySLqCmoyYP6cFKyh9WH-1" value="&lt;b&gt;Point of sale (By company ABC)&amp;nbsp;&lt;/b&gt;" style="whiteSpace=wrap;html=1;aspect=fixed;fillColor=#d5e8d4;strokeColor=#82b366;" vertex="1" parent="1">
          <mxGeometry x="490" y="326.25" width="87.5" height="87.5" as="geometry" />
        </mxCell>
        <mxCell id="aySLqCmoyYP6cFKyh9WH-3" value="Store" style="whiteSpace=wrap;html=1;aspect=fixed;fillColor=#d5e8d4;strokeColor=#82b366;" vertex="1" parent="1">
          <mxGeometry x="290" y="320" width="105.88" height="100" as="geometry" />
        </mxCell>
        <mxCell id="aySLqCmoyYP6cFKyh9WH-4" value="Milk guy" style="whiteSpace=wrap;html=1;aspect=fixed;fillColor=#F2CC8F;strokeColor=#E07A5F;fontColor=#393C56;" vertex="1" parent="1">
          <mxGeometry x="100" y="470" width="80" height="72.61" as="geometry" />
        </mxCell>
        <mxCell id="aySLqCmoyYP6cFKyh9WH-5" value="" style="endArrow=classic;html=1;rounded=0;entryX=0;entryY=1;entryDx=0;entryDy=0;exitX=1;exitY=0;exitDx=0;exitDy=0;labelBackgroundColor=#F4F1DE;strokeColor=#82b366;fontColor=#393C56;fillColor=#d5e8d4;" edge="1" parent="1" source="aySLqCmoyYP6cFKyh9WH-4" target="aySLqCmoyYP6cFKyh9WH-3">
          <mxGeometry width="50" height="50" relative="1" as="geometry">
            <mxPoint x="230" y="520" as="sourcePoint" />
            <mxPoint x="280" y="470" as="targetPoint" />
          </mxGeometry>
        </mxCell>
        <mxCell id="aySLqCmoyYP6cFKyh9WH-6" value="" style="endArrow=classic;html=1;rounded=0;labelBackgroundColor=#F4F1DE;strokeColor=#82b366;fontColor=#393C56;fillColor=#d5e8d4;" edge="1" parent="1" target="aySLqCmoyYP6cFKyh9WH-1">
          <mxGeometry width="50" height="50" relative="1" as="geometry">
            <mxPoint x="400" y="370" as="sourcePoint" />
            <mxPoint x="460" y="370" as="targetPoint" />
          </mxGeometry>
        </mxCell>
        <mxCell id="aySLqCmoyYP6cFKyh9WH-9" value="1 Milk = 5$" style="text;html=1;strokeColor=none;fillColor=none;align=center;verticalAlign=middle;whiteSpace=wrap;rounded=0;sketch=0;fontColor=#393C56;fontStyle=1" vertex="1" parent="1">
          <mxGeometry x="90" y="610" width="99" height="30" as="geometry" />
        </mxCell>
        <mxCell id="aySLqCmoyYP6cFKyh9WH-10" value="" style="endArrow=classic;html=1;rounded=0;entryX=0.5;entryY=1;entryDx=0;entryDy=0;exitX=0.5;exitY=0;exitDx=0;exitDy=0;labelBackgroundColor=#F4F1DE;strokeColor=#82b366;fontColor=#393C56;fillColor=#d5e8d4;" edge="1" parent="1" source="aySLqCmoyYP6cFKyh9WH-9" target="aySLqCmoyYP6cFKyh9WH-4">
          <mxGeometry width="50" height="50" relative="1" as="geometry">
            <mxPoint x="60" y="640" as="sourcePoint" />
            <mxPoint x="170" y="590" as="targetPoint" />
          </mxGeometry>
        </mxCell>
        <mxCell id="aySLqCmoyYP6cFKyh9WH-11" value="1 Milk&amp;nbsp;" style="text;html=1;strokeColor=none;fillColor=none;align=center;verticalAlign=middle;whiteSpace=wrap;rounded=0;sketch=0;fontColor=#393C56;fontStyle=1" vertex="1" parent="1">
          <mxGeometry x="220" y="460" width="99" height="30" as="geometry" />
        </mxCell>
        <mxCell id="aySLqCmoyYP6cFKyh9WH-12" value="1 Milk = 5$" style="text;html=1;strokeColor=none;fillColor=none;align=center;verticalAlign=middle;whiteSpace=wrap;rounded=0;sketch=0;fontColor=#393C56;fontStyle=1" vertex="1" parent="1">
          <mxGeometry x="391" y="377.5" width="99" height="30" as="geometry" />
        </mxCell>
        <mxCell id="aySLqCmoyYP6cFKyh9WH-13" value="5$" style="text;html=1;strokeColor=none;fillColor=none;align=center;verticalAlign=middle;whiteSpace=wrap;rounded=0;sketch=0;fontColor=#393C56;fontStyle=1" vertex="1" parent="1">
          <mxGeometry x="160" y="407.5" width="99" height="30" as="geometry" />
        </mxCell>
        <mxCell id="aySLqCmoyYP6cFKyh9WH-14" value="" style="endArrow=classic;html=1;rounded=0;labelBackgroundColor=#F4F1DE;strokeColor=#82b366;fontColor=#393C56;fillColor=#d5e8d4;" edge="1" parent="1">
          <mxGeometry width="50" height="50" relative="1" as="geometry">
            <mxPoint x="278" y="417" as="sourcePoint" />
            <mxPoint x="168" y="467" as="targetPoint" />
          </mxGeometry>
        </mxCell>
        <mxCell id="aySLqCmoyYP6cFKyh9WH-16" value="" style="endArrow=classic;html=1;rounded=0;labelBackgroundColor=#F4F1DE;strokeColor=#82b366;fontColor=#393C56;fillColor=#d5e8d4;exitX=0;exitY=0;exitDx=0;exitDy=0;" edge="1" parent="1">
          <mxGeometry width="50" height="50" relative="1" as="geometry">
            <mxPoint x="603" y="380" as="sourcePoint" />
            <mxPoint x="700" y="380" as="targetPoint" />
          </mxGeometry>
        </mxCell>
        <mxCell id="aySLqCmoyYP6cFKyh9WH-17" value="1 Milk&amp;nbsp;" style="text;html=1;strokeColor=none;fillColor=none;align=center;verticalAlign=middle;whiteSpace=wrap;rounded=0;sketch=0;fontColor=#393C56;fontStyle=1" vertex="1" parent="1">
          <mxGeometry x="590" y="380" width="99" height="30" as="geometry" />
        </mxCell>
        <mxCell id="aySLqCmoyYP6cFKyh9WH-18" value="5$" style="text;html=1;strokeColor=none;fillColor=none;align=center;verticalAlign=middle;whiteSpace=wrap;rounded=0;sketch=0;fontColor=#393C56;fontStyle=1" vertex="1" parent="1">
          <mxGeometry x="590" y="332.5" width="99" height="30" as="geometry" />
        </mxCell>
        <mxCell id="aySLqCmoyYP6cFKyh9WH-19" value="" style="endArrow=classic;html=1;rounded=0;labelBackgroundColor=#F4F1DE;strokeColor=#82b366;fontColor=#393C56;fillColor=#d5e8d4;exitX=-0.011;exitY=0.429;exitDx=0;exitDy=0;exitPerimeter=0;" edge="1" parent="1">
          <mxGeometry width="50" height="50" relative="1" as="geometry">
            <mxPoint x="699.1475" y="365.74749999999995" as="sourcePoint" />
            <mxPoint x="600" y="366" as="targetPoint" />
          </mxGeometry>
        </mxCell>
        <mxCell id="aySLqCmoyYP6cFKyh9WH-22" value="" style="shape=image;html=1;verticalAlign=top;verticalLabelPosition=bottom;labelBackgroundColor=#ffffff;imageAspect=0;aspect=fixed;image=https://cdn0.iconfinder.com/data/icons/user-pictures/100/malecostume-128.png;rounded=0;sketch=0;fontColor=#393C56;strokeColor=#E07A5F;fillColor=#F2CC8F;" vertex="1" parent="1">
          <mxGeometry x="710" y="341" width="58" height="58" as="geometry" />
        </mxCell>
        <mxCell id="aySLqCmoyYP6cFKyh9WH-24" value="" style="shape=image;html=1;verticalAlign=top;verticalLabelPosition=bottom;labelBackgroundColor=#ffffff;imageAspect=0;aspect=fixed;image=https://cdn1.iconfinder.com/data/icons/office-workers-2/64/Office_Outline_Icon_64px_storage_pencil-128.png;rounded=0;sketch=0;fontColor=#393C56;strokeColor=#E07A5F;fillColor=#F2CC8F;" vertex="1" parent="1">
          <mxGeometry x="33" y="730" width="150" height="150" as="geometry" />
        </mxCell>
        <mxCell id="aySLqCmoyYP6cFKyh9WH-25" value="" style="shape=image;html=1;verticalAlign=top;verticalLabelPosition=bottom;labelBackgroundColor=#ffffff;imageAspect=0;aspect=fixed;image=https://cdn1.iconfinder.com/data/icons/office-workers-2/64/Office_Outline_Icon_64px_storage_pencil-128.png;rounded=0;sketch=0;fontColor=#393C56;strokeColor=#E07A5F;fillColor=#F2CC8F;" vertex="1" parent="1">
          <mxGeometry x="59.94" y="730" width="150" height="150" as="geometry" />
        </mxCell>
        <mxCell id="aySLqCmoyYP6cFKyh9WH-26" value="" style="shape=image;html=1;verticalAlign=top;verticalLabelPosition=bottom;labelBackgroundColor=#ffffff;imageAspect=0;aspect=fixed;image=https://cdn1.iconfinder.com/data/icons/office-workers-2/64/Office_Outline_Icon_64px_storage_pencil-128.png;rounded=0;sketch=0;fontColor=#393C56;strokeColor=#E07A5F;fillColor=#F2CC8F;" vertex="1" parent="1">
          <mxGeometry x="102" y="730" width="150" height="150" as="geometry" />
        </mxCell>
        <mxCell id="aySLqCmoyYP6cFKyh9WH-27" value="US&amp;nbsp;&lt;span&gt;Federal Bank&amp;nbsp;&lt;/span&gt;" style="text;html=1;strokeColor=none;fillColor=none;align=center;verticalAlign=middle;whiteSpace=wrap;rounded=0;sketch=0;fontColor=#393C56;fontStyle=1" vertex="1" parent="1">
          <mxGeometry x="54.44" y="870" width="161" height="30" as="geometry" />
        </mxCell>
        <mxCell id="aySLqCmoyYP6cFKyh9WH-28" value="" style="endArrow=classic;html=1;rounded=0;labelBackgroundColor=#F4F1DE;strokeColor=#82b366;fontColor=#393C56;fillColor=#d5e8d4;entryX=0.5;entryY=1;entryDx=0;entryDy=0;exitX=0.25;exitY=0;exitDx=0;exitDy=0;" edge="1" parent="1" source="aySLqCmoyYP6cFKyh9WH-26" target="aySLqCmoyYP6cFKyh9WH-9">
          <mxGeometry width="50" height="50" relative="1" as="geometry">
            <mxPoint x="170" y="710" as="sourcePoint" />
            <mxPoint x="200" y="650" as="targetPoint" />
          </mxGeometry>
        </mxCell>
        <mxCell id="aySLqCmoyYP6cFKyh9WH-30" value="" style="rounded=0;whiteSpace=wrap;html=1;sketch=0;fontColor=#000000;strokeColor=#BD7000;fillColor=#f0a30a;fontStyle=1" vertex="1" parent="1">
          <mxGeometry x="80" y="985" width="35" height="52" as="geometry" />
        </mxCell>
        <mxCell id="aySLqCmoyYP6cFKyh9WH-31" value="" style="rounded=0;whiteSpace=wrap;html=1;sketch=0;fontColor=#000000;strokeColor=#BD7000;fillColor=#f0a30a;fontStyle=1" vertex="1" parent="1">
          <mxGeometry x="125" y="985" width="35" height="52" as="geometry" />
        </mxCell>
        <mxCell id="aySLqCmoyYP6cFKyh9WH-32" value="" style="rounded=0;whiteSpace=wrap;html=1;sketch=0;fontColor=#000000;strokeColor=#BD7000;fillColor=#f0a30a;fontStyle=1" vertex="1" parent="1">
          <mxGeometry x="172" y="985" width="35" height="52" as="geometry" />
        </mxCell>
        <mxCell id="aySLqCmoyYP6cFKyh9WH-33" value="" style="rounded=0;whiteSpace=wrap;html=1;sketch=0;fontColor=#000000;strokeColor=#BD7000;fillColor=#f0a30a;fontStyle=1" vertex="1" parent="1">
          <mxGeometry x="217" y="985" width="35" height="52" as="geometry" />
        </mxCell>
        <mxCell id="aySLqCmoyYP6cFKyh9WH-34" value="" style="rounded=0;whiteSpace=wrap;html=1;sketch=0;fontColor=#000000;strokeColor=#BD7000;fillColor=#f0a30a;" vertex="1" parent="1">
          <mxGeometry x="258" y="985" width="35" height="52" as="geometry" />
        </mxCell>
        <mxCell id="aySLqCmoyYP6cFKyh9WH-35" value="" style="rounded=0;whiteSpace=wrap;html=1;sketch=0;fontColor=#000000;strokeColor=#BD7000;fillColor=#f0a30a;" vertex="1" parent="1">
          <mxGeometry x="303" y="985" width="35" height="52" as="geometry" />
        </mxCell>
        <mxCell id="aySLqCmoyYP6cFKyh9WH-36" value="" style="rounded=0;whiteSpace=wrap;html=1;sketch=0;fontColor=#000000;strokeColor=#BD7000;fillColor=#f0a30a;" vertex="1" parent="1">
          <mxGeometry x="350" y="985" width="35" height="52" as="geometry" />
        </mxCell>
        <mxCell id="aySLqCmoyYP6cFKyh9WH-37" value="" style="rounded=0;whiteSpace=wrap;html=1;sketch=0;fontColor=#000000;strokeColor=#BD7000;fillColor=#f0a30a;" vertex="1" parent="1">
          <mxGeometry x="395" y="985" width="35" height="52" as="geometry" />
        </mxCell>
        <mxCell id="aySLqCmoyYP6cFKyh9WH-38" value="" style="rounded=0;whiteSpace=wrap;html=1;sketch=0;fontColor=#000000;strokeColor=#BD7000;fillColor=#f0a30a;fontStyle=1" vertex="1" parent="1">
          <mxGeometry x="440" y="985" width="35" height="52" as="geometry" />
        </mxCell>
        <mxCell id="aySLqCmoyYP6cFKyh9WH-39" value="" style="rounded=0;whiteSpace=wrap;html=1;sketch=0;fontColor=#000000;strokeColor=#BD7000;fillColor=#f0a30a;fontStyle=1" vertex="1" parent="1">
          <mxGeometry x="485" y="985" width="35" height="52" as="geometry" />
        </mxCell>
        <mxCell id="aySLqCmoyYP6cFKyh9WH-40" value="" style="rounded=0;whiteSpace=wrap;html=1;sketch=0;fontColor=#000000;strokeColor=#BD7000;fillColor=#f0a30a;fontStyle=1" vertex="1" parent="1">
          <mxGeometry x="532" y="985" width="35" height="52" as="geometry" />
        </mxCell>
        <mxCell id="aySLqCmoyYP6cFKyh9WH-41" value="" style="rounded=0;whiteSpace=wrap;html=1;sketch=0;fontColor=#000000;strokeColor=#BD7000;fillColor=#f0a30a;fontStyle=1" vertex="1" parent="1">
          <mxGeometry x="577" y="985" width="35" height="52" as="geometry" />
        </mxCell>
        <mxCell id="aySLqCmoyYP6cFKyh9WH-42" value="" style="rounded=0;whiteSpace=wrap;html=1;sketch=0;fontColor=#000000;strokeColor=#BD7000;fillColor=#f0a30a;" vertex="1" parent="1">
          <mxGeometry x="618" y="985" width="35" height="52" as="geometry" />
        </mxCell>
        <mxCell id="aySLqCmoyYP6cFKyh9WH-43" value="" style="rounded=0;whiteSpace=wrap;html=1;sketch=0;fontColor=#000000;strokeColor=#BD7000;fillColor=#f0a30a;" vertex="1" parent="1">
          <mxGeometry x="663" y="985" width="35" height="52" as="geometry" />
        </mxCell>
        <mxCell id="aySLqCmoyYP6cFKyh9WH-44" value="" style="rounded=0;whiteSpace=wrap;html=1;sketch=0;fontColor=#000000;strokeColor=#BD7000;fillColor=#f0a30a;" vertex="1" parent="1">
          <mxGeometry x="710" y="985" width="35" height="52" as="geometry" />
        </mxCell>
        <mxCell id="aySLqCmoyYP6cFKyh9WH-45" value="" style="rounded=0;whiteSpace=wrap;html=1;sketch=0;fontColor=#000000;strokeColor=#BD7000;fillColor=#f0a30a;" vertex="1" parent="1">
          <mxGeometry x="755" y="985" width="35" height="52" as="geometry" />
        </mxCell>
        <mxCell id="aySLqCmoyYP6cFKyh9WH-46" value="&lt;b&gt;Gold&lt;/b&gt;&lt;b&gt;&amp;nbsp;Base - Globally&amp;nbsp;&lt;/b&gt;" style="text;html=1;strokeColor=none;fillColor=none;align=center;verticalAlign=middle;whiteSpace=wrap;rounded=0;sketch=0;fontColor=#393C56;" vertex="1" parent="1">
          <mxGeometry x="360" y="1050" width="125" height="30" as="geometry" />
        </mxCell>
        <mxCell id="aySLqCmoyYP6cFKyh9WH-47" value="" style="endArrow=none;dashed=1;html=1;dashPattern=1 3;strokeWidth=2;rounded=1;sketch=0;fontColor=#393C56;fillColor=#F2CC8F;curved=0;" edge="1" parent="1">
          <mxGeometry width="50" height="50" relative="1" as="geometry">
            <mxPoint x="90" y="979" as="sourcePoint" />
            <mxPoint x="790" y="979" as="targetPoint" />
            <Array as="points">
              <mxPoint x="90" y="979" />
            </Array>
          </mxGeometry>
        </mxCell>
        <mxCell id="aySLqCmoyYP6cFKyh9WH-48" value="" style="endArrow=none;dashed=1;html=1;dashPattern=1 3;strokeWidth=2;rounded=1;sketch=0;fontColor=#393C56;fillColor=#F2CC8F;curved=0;" edge="1" parent="1">
          <mxGeometry width="50" height="50" relative="1" as="geometry">
            <mxPoint x="89" y="1045" as="sourcePoint" />
            <mxPoint x="789" y="1045" as="targetPoint" />
            <Array as="points">
              <mxPoint x="89" y="1045" />
            </Array>
          </mxGeometry>
        </mxCell>
        <mxCell id="aySLqCmoyYP6cFKyh9WH-49" value="" style="rounded=0;whiteSpace=wrap;html=1;sketch=0;fontColor=#000000;strokeColor=#BD7000;fillColor=#f0a30a;fontStyle=1" vertex="1" parent="1">
          <mxGeometry x="122.5" y="790" width="35" height="52" as="geometry" />
        </mxCell>
        <mxCell id="aySLqCmoyYP6cFKyh9WH-50" value="" style="rounded=0;whiteSpace=wrap;html=1;sketch=0;fontColor=#000000;strokeColor=#BD7000;fillColor=#f0a30a;fontStyle=1" vertex="1" parent="1">
          <mxGeometry x="80" y="790" width="35" height="52" as="geometry" />
        </mxCell>
        <mxCell id="aySLqCmoyYP6cFKyh9WH-51" value="" style="rounded=0;whiteSpace=wrap;html=1;sketch=0;fontColor=#000000;strokeColor=#BD7000;fillColor=#f0a30a;fontStyle=1" vertex="1" parent="1">
          <mxGeometry x="172" y="790" width="35" height="52" as="geometry" />
        </mxCell>
        <mxCell id="aySLqCmoyYP6cFKyh9WH-52" value="" style="endArrow=none;dashed=1;html=1;dashPattern=1 3;strokeWidth=2;rounded=1;sketch=0;fontColor=#393C56;fillColor=#F2CC8F;curved=0;" edge="1" parent="1">
          <mxGeometry width="50" height="50" relative="1" as="geometry">
            <mxPoint x="73.5" y="640" as="sourcePoint" />
            <mxPoint x="211.5" y="640" as="targetPoint" />
            <Array as="points">
              <mxPoint x="73.5" y="640" />
            </Array>
          </mxGeometry>
        </mxCell>
        <mxCell id="aySLqCmoyYP6cFKyh9WH-54" value="" style="endArrow=classic;html=1;rounded=1;sketch=0;fontColor=#393C56;strokeColor=#E07A5F;fillColor=#F2CC8F;curved=0;entryX=0.662;entryY=1.167;entryDx=0;entryDy=0;entryPerimeter=0;" edge="1" parent="1" target="aySLqCmoyYP6cFKyh9WH-27">
          <mxGeometry width="50" height="50" relative="1" as="geometry">
            <mxPoint x="202" y="960" as="sourcePoint" />
            <mxPoint x="150" y="910" as="targetPoint" />
          </mxGeometry>
        </mxCell>
        <mxCell id="aySLqCmoyYP6cFKyh9WH-56" value="&lt;b&gt;Company ABC&lt;/b&gt;" style="whiteSpace=wrap;html=1;aspect=fixed;fillColor=#d5e8d4;strokeColor=#82b366;" vertex="1" parent="1">
          <mxGeometry x="586.56" y="670" width="105.88" height="100" as="geometry" />
        </mxCell>
        <mxCell id="aySLqCmoyYP6cFKyh9WH-57" value="" style="shape=mxgraph.cisco.computers_and_peripherals.pc_adapter_card;html=1;pointerEvents=1;dashed=0;fillColor=#036897;strokeColor=#ffffff;strokeWidth=2;verticalLabelPosition=bottom;verticalAlign=top;align=center;outlineConnect=0;rounded=0;sketch=0;fontColor=#393C56;" vertex="1" parent="1">
          <mxGeometry x="513" y="810" width="64" height="86" as="geometry" />
        </mxCell>
        <mxCell id="aySLqCmoyYP6cFKyh9WH-58" value="" style="rounded=0;whiteSpace=wrap;html=1;sketch=0;fontColor=#000000;strokeColor=#BD7000;fillColor=#f0a30a;" vertex="1" parent="1">
          <mxGeometry x="720" y="827" width="35" height="52" as="geometry" />
        </mxCell>
        <mxCell id="aySLqCmoyYP6cFKyh9WH-59" value="" style="rounded=0;whiteSpace=wrap;html=1;sketch=0;fontColor=#000000;strokeColor=#BD7000;fillColor=#f0a30a;" vertex="1" parent="1">
          <mxGeometry x="675" y="828" width="35" height="52" as="geometry" />
        </mxCell>
        <mxCell id="aySLqCmoyYP6cFKyh9WH-60" value="&lt;b style=&quot;color: rgb(57, 60, 86); font-family: helvetica; font-size: 12px; font-style: normal; letter-spacing: normal; text-align: center; text-indent: 0px; text-transform: none; word-spacing: 0px; background-color: rgb(248, 249, 250);&quot;&gt;Gold&lt;/b&gt;" style="text;whiteSpace=wrap;html=1;fontColor=#393C56;" vertex="1" parent="1">
          <mxGeometry x="83" y="1007" width="50" height="30" as="geometry" />
        </mxCell>
        <mxCell id="aySLqCmoyYP6cFKyh9WH-61" value="&lt;b style=&quot;color: rgb(57, 60, 86); font-family: helvetica; font-size: 12px; font-style: normal; letter-spacing: normal; text-align: center; text-indent: 0px; text-transform: none; word-spacing: 0px; background-color: rgb(248, 249, 250);&quot;&gt;Gold&lt;/b&gt;" style="text;whiteSpace=wrap;html=1;fontColor=#393C56;" vertex="1" parent="1">
          <mxGeometry x="127" y="1007" width="50" height="30" as="geometry" />
        </mxCell>
        <mxCell id="aySLqCmoyYP6cFKyh9WH-62" value="&lt;b style=&quot;color: rgb(57, 60, 86); font-family: helvetica; font-size: 12px; font-style: normal; letter-spacing: normal; text-align: center; text-indent: 0px; text-transform: none; word-spacing: 0px; background-color: rgb(248, 249, 250);&quot;&gt;Gold&lt;/b&gt;" style="text;whiteSpace=wrap;html=1;fontColor=#393C56;" vertex="1" parent="1">
          <mxGeometry x="172" y="1007" width="50" height="30" as="geometry" />
        </mxCell>
        <mxCell id="aySLqCmoyYP6cFKyh9WH-63" value="&lt;b style=&quot;color: rgb(57, 60, 86); font-family: helvetica; font-size: 12px; font-style: normal; letter-spacing: normal; text-align: center; text-indent: 0px; text-transform: none; word-spacing: 0px; background-color: rgb(248, 249, 250);&quot;&gt;Gold&lt;/b&gt;" style="text;whiteSpace=wrap;html=1;fontColor=#393C56;" vertex="1" parent="1">
          <mxGeometry x="217" y="1007" width="50" height="30" as="geometry" />
        </mxCell>
        <mxCell id="aySLqCmoyYP6cFKyh9WH-64" value="&lt;b style=&quot;color: rgb(57, 60, 86); font-family: helvetica; font-size: 12px; font-style: normal; letter-spacing: normal; text-align: center; text-indent: 0px; text-transform: none; word-spacing: 0px; background-color: rgb(248, 249, 250);&quot;&gt;Gold&lt;/b&gt;" style="text;whiteSpace=wrap;html=1;fontColor=#393C56;" vertex="1" parent="1">
          <mxGeometry x="261" y="1007" width="50" height="30" as="geometry" />
        </mxCell>
        <mxCell id="aySLqCmoyYP6cFKyh9WH-65" value="&lt;b style=&quot;color: rgb(57, 60, 86); font-family: helvetica; font-size: 12px; font-style: normal; letter-spacing: normal; text-align: center; text-indent: 0px; text-transform: none; word-spacing: 0px; background-color: rgb(248, 249, 250);&quot;&gt;Gold&lt;/b&gt;" style="text;whiteSpace=wrap;html=1;fontColor=#393C56;" vertex="1" parent="1">
          <mxGeometry x="306" y="1007" width="50" height="30" as="geometry" />
        </mxCell>
        <mxCell id="aySLqCmoyYP6cFKyh9WH-66" value="&lt;b style=&quot;color: rgb(57, 60, 86); font-family: helvetica; font-size: 12px; font-style: normal; letter-spacing: normal; text-align: center; text-indent: 0px; text-transform: none; word-spacing: 0px; background-color: rgb(248, 249, 250);&quot;&gt;Gold&lt;/b&gt;" style="text;whiteSpace=wrap;html=1;fontColor=#393C56;" vertex="1" parent="1">
          <mxGeometry x="350" y="1007" width="50" height="30" as="geometry" />
        </mxCell>
        <mxCell id="aySLqCmoyYP6cFKyh9WH-67" value="&lt;b style=&quot;color: rgb(57, 60, 86); font-family: helvetica; font-size: 12px; font-style: normal; letter-spacing: normal; text-align: center; text-indent: 0px; text-transform: none; word-spacing: 0px; background-color: rgb(248, 249, 250);&quot;&gt;Gold&lt;/b&gt;" style="text;whiteSpace=wrap;html=1;fontColor=#393C56;" vertex="1" parent="1">
          <mxGeometry x="394" y="1007" width="50" height="30" as="geometry" />
        </mxCell>
        <mxCell id="aySLqCmoyYP6cFKyh9WH-68" value="&lt;b style=&quot;color: rgb(57, 60, 86); font-family: helvetica; font-size: 12px; font-style: normal; letter-spacing: normal; text-align: center; text-indent: 0px; text-transform: none; word-spacing: 0px; background-color: rgb(248, 249, 250);&quot;&gt;Gold&lt;/b&gt;" style="text;whiteSpace=wrap;html=1;fontColor=#393C56;" vertex="1" parent="1">
          <mxGeometry x="439" y="1007" width="50" height="30" as="geometry" />
        </mxCell>
        <mxCell id="aySLqCmoyYP6cFKyh9WH-69" value="&lt;b style=&quot;color: rgb(57, 60, 86); font-family: helvetica; font-size: 12px; font-style: normal; letter-spacing: normal; text-align: center; text-indent: 0px; text-transform: none; word-spacing: 0px; background-color: rgb(248, 249, 250);&quot;&gt;Gold&lt;/b&gt;" style="text;whiteSpace=wrap;html=1;fontColor=#393C56;" vertex="1" parent="1">
          <mxGeometry x="484" y="1007" width="50" height="30" as="geometry" />
        </mxCell>
        <mxCell id="aySLqCmoyYP6cFKyh9WH-70" value="&lt;b style=&quot;color: rgb(57, 60, 86); font-family: helvetica; font-size: 12px; font-style: normal; letter-spacing: normal; text-align: center; text-indent: 0px; text-transform: none; word-spacing: 0px; background-color: rgb(248, 249, 250);&quot;&gt;Gold&lt;/b&gt;" style="text;whiteSpace=wrap;html=1;fontColor=#393C56;" vertex="1" parent="1">
          <mxGeometry x="534" y="1007" width="50" height="30" as="geometry" />
        </mxCell>
        <mxCell id="aySLqCmoyYP6cFKyh9WH-71" value="&lt;b style=&quot;color: rgb(57, 60, 86); font-family: helvetica; font-size: 12px; font-style: normal; letter-spacing: normal; text-align: center; text-indent: 0px; text-transform: none; word-spacing: 0px; background-color: rgb(248, 249, 250);&quot;&gt;Gold&lt;/b&gt;" style="text;whiteSpace=wrap;html=1;fontColor=#393C56;" vertex="1" parent="1">
          <mxGeometry x="577.5" y="1007" width="50" height="30" as="geometry" />
        </mxCell>
        <mxCell id="aySLqCmoyYP6cFKyh9WH-72" value="&lt;b style=&quot;color: rgb(57, 60, 86); font-family: helvetica; font-size: 12px; font-style: normal; letter-spacing: normal; text-align: center; text-indent: 0px; text-transform: none; word-spacing: 0px; background-color: rgb(248, 249, 250);&quot;&gt;Gold&lt;/b&gt;" style="text;whiteSpace=wrap;html=1;fontColor=#393C56;" vertex="1" parent="1">
          <mxGeometry x="622" y="1007" width="50" height="30" as="geometry" />
        </mxCell>
        <mxCell id="aySLqCmoyYP6cFKyh9WH-73" value="&lt;b style=&quot;color: rgb(57, 60, 86); font-family: helvetica; font-size: 12px; font-style: normal; letter-spacing: normal; text-align: center; text-indent: 0px; text-transform: none; word-spacing: 0px; background-color: rgb(248, 249, 250);&quot;&gt;Gold&lt;/b&gt;" style="text;whiteSpace=wrap;html=1;fontColor=#393C56;" vertex="1" parent="1">
          <mxGeometry x="665.75" y="1007" width="50" height="30" as="geometry" />
        </mxCell>
        <mxCell id="aySLqCmoyYP6cFKyh9WH-74" value="&lt;b style=&quot;color: rgb(57, 60, 86); font-family: helvetica; font-size: 12px; font-style: normal; letter-spacing: normal; text-align: center; text-indent: 0px; text-transform: none; word-spacing: 0px; background-color: rgb(248, 249, 250);&quot;&gt;Gold&lt;/b&gt;" style="text;whiteSpace=wrap;html=1;fontColor=#393C56;" vertex="1" parent="1">
          <mxGeometry x="709.25" y="1007" width="50" height="30" as="geometry" />
        </mxCell>
        <mxCell id="aySLqCmoyYP6cFKyh9WH-75" value="&lt;b style=&quot;color: rgb(57, 60, 86); font-family: helvetica; font-size: 12px; font-style: normal; letter-spacing: normal; text-align: center; text-indent: 0px; text-transform: none; word-spacing: 0px; background-color: rgb(248, 249, 250);&quot;&gt;Gold&lt;/b&gt;" style="text;whiteSpace=wrap;html=1;fontColor=#393C56;" vertex="1" parent="1">
          <mxGeometry x="759.25" y="1007" width="50" height="30" as="geometry" />
        </mxCell>
      </root>
    </mxGraphModel>
  </diagram>
</mxfile>
